<svg xmlns="http://www.w3.org/2000/svg" viewBox="0 0 560 360" role="img" aria-labelledby="title">
<title id="title">購物袋、藍色衣服和價格吊牌，代表詢問商品、尺寸與付款</title>
<rect width="560" height="360" rx="28" fill="#eeebfa"/><circle cx="92" cy="64" r="110" fill="#e2ddf4"/>
<ellipse cx="286" cy="292" rx="183" ry="21" fill="#302754" opacity=".08"/>
<g transform="rotate(-7 200 190)"><path d="M116 124h177l14 160H102z" fill="#735eac"/><path d="M157 142V97a43 43 0 0 1 86 0v45" fill="none" stroke="#453567" stroke-width="10" stroke-linecap="round"/><text x="203" y="211" text-anchor="middle" font-family="Arial,sans-serif" font-size="24" font-weight="bold" fill="white">LET’S SHOP</text><text x="203" y="240" text-anchor="middle" font-family="Arial,sans-serif" font-size="12" letter-spacing="3" fill="#e8e0ff">TRAVEL LAB</text></g>
<g transform="translate(282 115) rotate(9 75 80)"><path d="m45 0-44 26 18 42 24-10v113h103V58l24 10 18-42-44-26c-12 23-47 23-59 0z" fill="#78a3cf" stroke="#416d9c" stroke-width="3"/><path d="M51 5c12 31 42 31 55 0M52 157h85" fill="none" stroke="#b9d5ee" stroke-width="5"/><rect x="75" y="46" width="37" height="32" rx="7" fill="#e6f0fa"/><text x="93" y="69" text-anchor="middle" fill="#416d9c" font-family="Arial" font-size="21">M</text></g>
<g transform="translate(375 53) rotate(14)"><path d="M0 0h87l21 32-21 32H0z" fill="#ffd397"/><circle cx="87" cy="32" r="5" fill="#fff6e7"/><text x="39" y="43" text-anchor="middle" font-family="Arial,sans-serif" font-size="29" font-weight="bold" fill="#654528">$20</text></g>
<text x="30" y="338" fill="#655189" font-family="Arial,sans-serif" font-size="11" letter-spacing="3">DAY 02 / ASK. TRY. BUY.</text>
</svg>
